<?xml version="1.0" encoding="UTF-8"?>
<svg xmlns="http://www.w3.org/2000/svg" viewBox="0 0 322.18 322.18">
  <defs>
    <style>
      .cls-1 {
        fill: #fff;
      }

      .cls-2 {
        fill: blue;
      }

      .cls-3 {
        fill: red;
      }

      .cls-4 {
        isolation: isolate;
      }

      .cls-5 {
        mix-blend-mode: screen;
      }

      .cls-6 {
        fill: lime;
      }

      .cls-7 {
        fill: #ff0;
      }
    </style>
  </defs>
  <g class="cls-4">
    <g id="Layer_2" data-name="Layer 2">
      <g id="Layer_1-2" data-name="Layer 1">
        <g>
          <g class="cls-5">
            <path class="cls-7" d="M100.94,69.2c28.58,0,73.72,6.97,110.21,44.33,54.64,55.95,40.65,129.63,39.42,135.56-2.03.47-14.28,3.13-31.79,3.13-28.06,0-69.64-6.81-104.47-40.31-59.18-56.93-42.13-136.43-41.23-140.3,1.8-.38,12.41-2.41,27.85-2.41M100.94,39.2v30-30c-17.97,0-30.54,2.33-33.97,3.04l-18.76,3.9-4.35,18.66c-.64,2.73-6.12,27.64-2.52,60.34,4.69,42.58,22.72,80.06,52.17,108.39,18.93,18.21,41.25,31.55,66.36,39.65,18.6,6,38.42,9.04,58.91,9.04s34.67-3,38.61-3.91l18.65-4.35,3.9-18.74c2.01-9.63,17.72-96.04-47.33-162.64-19.65-20.12-43.25-34.83-70.12-43.7-19.43-6.42-40.13-9.67-61.55-9.67h0Z"/>
          </g>
          <path class="cls-3" d="M161.11,92.06c.59,0,1.17,0,1.75.01,78.2.92,120.41,62.92,123.73,67.98-2.87,4.61-44.18,68.54-122.64,70.05-.94.02-1.88.03-2.82.03-80.3,0-123.47-66.74-125.55-70.08,2.86-4.36,46.2-67.99,125.52-67.99M161.11,62.06h0c-39.4,0-77.39,13.38-109.87,38.7-24.62,19.19-38.25,39.06-40.73,42.85L0,159.63l10.12,16.27c1.45,2.33,14.9,23.38,40.02,43.75,32.66,26.49,71.05,40.49,111,40.49,1.12,0,2.26-.01,3.4-.03,39.1-.76,76.47-14.81,108.07-40.63,23.95-19.57,37.08-39.74,39.47-43.58l10.11-16.26-10.49-16.02c-5.39-8.23-55.38-80.44-148.47-81.54-.71,0-1.4-.01-2.11-.01h0Z"/>
          <path class="cls-1" d="M160.81,141.93c10.16,0,18.39,8.23,18.39,18.39s-8.23,18.39-18.39,18.39-18.39-8.23-18.39-18.39,8.23-18.39,18.39-18.39M160.81,111.93c-26.68,0-48.39,21.71-48.39,48.39s21.71,48.39,48.39,48.39,48.39-21.71,48.39-48.39-21.71-48.39-48.39-48.39h0Z"/>
          <g class="cls-5">
            <path class="cls-2" d="M219.41,70.14c17.59,0,29.71,2.62,31.16,2.95,1.07,5.14,15.62,81.86-41.92,138.06-36.03,35.19-79.41,41.91-107.31,41.91-15.43,0-26.13-2.06-28.24-2.5-1.24-5.29-17.23-79.7,37.18-136.25,35.55-36.95,79.9-44.18,109.14-44.18M219.42,40.14v30-30c-21.58,0-42.35,3.29-61.74,9.79-26.52,8.88-49.74,23.55-69.03,43.6-27.11,28.18-43.6,64.54-47.69,105.15-3.1,30.77,1.88,54.32,2.91,58.73l4.35,18.65,18.75,3.9c3.52.73,16.41,3.13,34.36,3.13,20.76,0,40.89-3.1,59.83-9.21,25.99-8.39,49.02-22.26,68.45-41.24,28.58-27.92,46.47-64.52,51.74-105.85,3.99-31.3-.47-55.3-1.41-59.79l-3.9-18.76-18.66-4.35c-2.68-.62-17.1-3.74-37.96-3.74h0Z"/>
          </g>
          <g class="cls-5">
            <path class="cls-6" d="M162.14,35.59c4.39,2.88,68.93,46.84,67.98,127.27-.92,78.2-62.92,120.41-67.98,123.73-4.61-2.87-68.54-44.18-70.05-122.64-1.59-82.1,66.68-126.26,70.05-128.36M162.56,0l-16.27,10.12c-2.38,1.48-23.87,15.22-44.45,40.89-26.8,33.42-40.54,72.68-39.75,113.53.76,39.1,14.81,76.47,40.63,108.07,19.57,23.95,39.74,37.08,43.58,39.47l16.26,10.11,16.02-10.49c8.23-5.39,80.44-55.38,81.54-148.47.47-39.95-12.76-78.48-38.26-111.43-19.31-24.95-39.43-38.77-43.27-41.28L162.56,0h0Z"/>
          </g>
        </g>
      </g>
    </g>
  </g>
</svg>